<svg width="122.88" height="89.1"
  xmlns="http://www.w3.org/2000/svg" data-name="Layer 1">
  <defs>
    <linearGradient spreadMethod="pad" y2="0" x2="1" y1="0" x1="0" id="svg_5">
      <stop offset="0" stop-color="#2c5d8e"/>
      <stop offset="1" stop-opacity="0.99609" stop-color="#193950"/>
    </linearGradient>
  </defs>
  <title>space-planet</title>
  <g>
    <title>Layer 1</title>
    <path id="svg_1" fill-rule="evenodd" fill="url(#svg_5)" d="m39.08,6a44.52,44.52 0 0 1 60.84,16.3c0.16,0.28 0.32,0.56 0.47,0.84c-1.39,2.43 -10.88,9.16 -22.68,16.66c-6.39,4.07 -13.49,8.2 -20.51,11.91s-13.93,7.06 -19.93,9.57c-7.29,3 -12.77,5.28 -14.36,5.78l-0.14,-0.24a44.53,44.53 0 0 1 16.31,-60.82zm66.81,38.21a44.55,44.55 0 0 1 -68.06,38.17a208.73,208.73 0 0 0 35.63,-16l0.08,0a209.2,209.2 0 0 0 32.35,-22.1l0,-0.07z" class="cls-1"/>
    <path id="svg_2" fill="#87bac9" fill-rule="evenodd" d="m95.15,8.59c13.85,-3.5 24,-3.07 26.9,2.11c5.51,9.82 -17.16,33 -50.64,51.79s-65.08,26.05 -70.59,16.22c-2.94,-5.24 2.18,-14.3 12.66,-24.47l-0.44,0.42a54,54 0 0 0 5.58,14.55c4.95,9.16 91.06,-38.2 85.8,-48.73c-0.1,-0.2 -0.23,-0.4 -0.35,-0.61a49.34,49.34 0 0 0 -8.92,-11.28z" class="cls-2"/>
  </g>
</svg>